<?xml version="1.0" standalone="no"?><!DOCTYPE svg PUBLIC "-//W3C//DTD SVG 1.1//EN" "http://www.w3.org/Graphics/SVG/1.1/DTD/svg11.dtd"><svg t="1736922649893" class="icon" viewBox="0 0 1024 1024" version="1.1" xmlns="http://www.w3.org/2000/svg" p-id="1410" xmlns:xlink="http://www.w3.org/1999/xlink" width="200" height="200"><path d="M512 902c215.391 0 390-174.609 390-390S727.391 122 512 122 122 296.609 122 512s174.609 390 390 390z m0 90C246.903 992 32 777.097 32 512S246.903 32 512 32s480 214.903 480 480-214.903 480-480 480z m45.328-524.951V287.744c0-60-90-60-90 0V467.05h-179.81c-60 0-60 90 0 90h179.81v179.81c0 60 90 60 90 0V557.05h179.304c60 0 60-90 0-90H557.328v-0.001z" p-id="1411" fill="#707070"></path></svg>